<!DOCTYPE svg PUBLIC "-//W3C//DTD SVG 1.1//EN" "http://www.w3.org/Graphics/SVG/1.1/DTD/svg11.dtd">
<svg version="1.1" xmlns="http://www.w3.org/2000/svg" xmlns:xlink="http://www.w3.org/1999/xlink" width="230" height="117">
    
<style> svg { cursor: pointer; }</style>

  <rect x="22" y="22" width="18" height="90" fill="#808080" />
  <text x="22" y="8" fill="#efefef" font-family="sans-serif" font-size="9">
    32
    <tspan x="23" dy="10">Hz</tspan>
  </text>


  <rect x="42" y="22" width="18" height="90" fill="#808080" />
  <text x="42" y="8" fill="#efefef" font-family="sans-serif" font-size="9">
    63
    <tspan x="43" dy="10">Hz</tspan>
  </text>


  <rect x="62" y="22" width="18" height="90" fill="#808080" />
  <text x="62" y="8" fill="#efefef" font-family="sans-serif" font-size="9">
    125
    <tspan x="63" dy="10">Hz</tspan>
  </text>


  <rect x="82" y="22" width="18" height="90" fill="#808080" />
  <text x="82" y="8" fill="#efefef" font-family="sans-serif" font-size="9">
    250
    <tspan x="83" dy="10">Hz</tspan>
  </text>


  <rect x="102" y="22" width="18" height="90" fill="#808080" />
  <text x="102" y="8" fill="#efefef" font-family="sans-serif" font-size="9">
    500
    <tspan x="103" dy="10">Hz</tspan>
  </text>


  <rect x="122" y="22" width="18" height="90" fill="#808080" />
  <text x="129" y="8" fill="#efefef" font-family="sans-serif" font-size="9">
    1
    <tspan x="123" dy="10">kHz</tspan>
  </text>


  <rect x="142" y="22" width="18" height="90" fill="#808080" />
  <text x="149" y="8" fill="#efefef" font-family="sans-serif" font-size="9">
    2
    <tspan x="143" dy="10">kHz</tspan>
  </text>


  <rect x="162" y="22" width="18" height="90" fill="#808080" />
  <text x="169" y="8" fill="#efefef" font-family="sans-serif" font-size="9">
    4
    <tspan x="163" dy="10">kHz</tspan>
  </text>


  <rect x="182" y="22" width="18" height="90" fill="#808080" />
  <text x="189" y="8" fill="#efefef" font-family="sans-serif" font-size="9">
    8
    <tspan x="183" dy="10">kHz</tspan>
  </text>


  <rect x="202" y="22" width="18" height="90" fill="#808080" />
  <text x="202" y="8" fill="#efefef" font-family="sans-serif" font-size="9">
    16
    <tspan x="203" dy="10">kHz</tspan>
  </text>


      <text x="8" y="26" fill="#efefef" font-family="sans-serif" font-size="9">
        12
        <tspan x="8" dy="10">dB</tspan>
      </text>
      <text x="10" y="68" fill="#efefef" font-family="sans-serif" font-size="9">0</text>
      <text x="5" y="104" fill="#efefef" font-family="sans-serif" font-size="9">
        -12
        <tspan x="8" dy="10">dB</tspan>
      </text>
      <line x1="22" x2="220" y1="67.0" y2="67.0" stroke="#efefef" stroke-width="1"  stroke-dasharray="6,2" />
    

          <rect id="band-filter-1" class="band-filter" x="22" y="62.0" width="18" height="10" fill="#bbc42a" stroke-width="0.5" stroke="#3b5400" />
          

          <rect id="band-filter-2" class="band-filter" x="42" y="62.0" width="18" height="10" fill="#bbc42a" stroke-width="0.5" stroke="#3b5400" />
          

          <rect id="band-filter-3" class="band-filter" x="62" y="62.0" width="18" height="10" fill="#bbc42a" stroke-width="0.5" stroke="#3b5400" />
          

          <rect id="band-filter-4" class="band-filter" x="82" y="62.0" width="18" height="10" fill="#bbc42a" stroke-width="0.5" stroke="#3b5400" />
          

          <rect id="band-filter-5" class="band-filter" x="102" y="62.0" width="18" height="10" fill="#bbc42a" stroke-width="0.5" stroke="#3b5400" />
          

          <rect id="band-filter-6" class="band-filter" x="122" y="62.0" width="18" height="10" fill="#bbc42a" stroke-width="0.5" stroke="#3b5400" />
          

          <rect id="band-filter-7" class="band-filter" x="142" y="62.0" width="18" height="10" fill="#bbc42a" stroke-width="0.5" stroke="#3b5400" />
          

          <rect id="band-filter-8" class="band-filter" x="162" y="62.0" width="18" height="10" fill="#bbc42a" stroke-width="0.5" stroke="#3b5400" />
          

          <rect id="band-filter-9" class="band-filter" x="182" y="62.0" width="18" height="10" fill="#bbc42a" stroke-width="0.5" stroke="#3b5400" />
          

          <rect id="band-filter-10" class="band-filter" x="202" y="62.0" width="18" height="10" fill="#bbc42a" stroke-width="0.5" stroke="#3b5400" />
          

    </svg>
    
